<?xml version="1.0" encoding="UTF-8"?>
<svg width="2416.7pt" height="313.7pt" version="1.1" viewBox="0 0 2416.7 313.7" xmlns="http://www.w3.org/2000/svg" xmlns:cc="http://creativecommons.org/ns#" xmlns:dc="http://purl.org/dc/elements/1.1/" xmlns:rdf="http://www.w3.org/1999/02/22-rdf-syntax-ns#">
 <metadata>
  <rdf:RDF>
   <cc:Work rdf:about="">
    <dc:format>image/svg+xml</dc:format>
    <dc:type rdf:resource="http://purl.org/dc/dcmitype/StillImage"/>
    <dc:title/>
   </cc:Work>
  </rdf:RDF>
 </metadata>
 <g transform="translate(-87.821 -1679.8)">
  <path d="m345.17 1993.3h72v-308.38h-103.54v70.27h31.535zm117.94 0h74.664l97.559-244.01v-64.367h-181.66v70.125h108.29zm194.54-129.24h162.79v-50.469h-162.65zm208.73 129.24h74.664l97.563-244.01v-64.367h-181.66v70.125h108.29zm194.04 0h194.47v-70.848h-93.168c35.641-31.609 60.914-63.793 70.344-79.199 17.496-28.73 22.68-50.906 22.68-71.137 0-54.793-37.797-92.305-95.543-92.305-37.801 0-63.793 15.121-80.277 37.441-13.395 18.07-23.547 49.965-21.961 81.07h70.129c0.4297-40.176 14.324-49.031 26.133-49.031 13.035 0 24.699 11.375 24.699 32.039 0 15.551-3.5313 32.184-24.555 61.129-18.719 25.918-51.695 58.969-93.094 86.617zm253.66 0h72v-308.38h-103.46v70.27h31.461zm113.69-129.24h162.79v-50.469h-162.65zm342.14-66.812c0 16.703-11.52 42.117-38.16 42.117-21.168 0-38.016-19.152-38.016-42.191 0-23.113 16.848-42.262 38.09-42.262 21.238 0 38.086 19.148 38.086 42.336zm-109.66 196.05h86.328l64.73-105.48c20.879-33.84 28.223-65.086 28.223-88.488 0-66.457-47.879-119.16-106.63-119.16-58.824 0-106.12 52.344-106.12 117.43 0 63.934 43.055 108.29 96.695 105.26zm210.6 0h74.664l97.559-244.01v-64.367h-181.66v70.125h108.29zm194.04 0h194.47v-70.848h-93.168c35.641-31.609 60.914-63.793 70.344-79.199 17.496-28.73 22.68-50.906 22.68-71.137 0-54.793-37.801-92.305-95.543-92.305-37.801 0-63.793 15.121-80.281 37.441-13.391 18.07-23.543 49.965-21.957 81.07h70.125c0.4336-40.176 14.328-49.031 26.137-49.031 13.031 0 24.695 11.375 24.695 32.039 0 15.551-3.5273 32.184-24.551 61.129-18.719 25.918-51.695 58.969-93.098 86.617zm290.52-119.81 46.586-69.406v69.48zm-81.863 67.32h128.3v52.703h72v-52.344h30.672v-67.824h-30.383v-188.42h-70.344l-130.25 194.4zm-2182.1 52.488h194.47v-70.848h-93.168c35.641-31.609 60.914-63.793 70.348-79.199 17.496-28.73 22.68-50.906 22.68-71.137 0-54.793-37.801-92.305-95.547-92.305-37.797 0-63.789 15.121-80.277 37.441-13.395 18.07-23.547 49.965-21.961 81.07h70.129c0.42969-40.176 14.328-49.031 26.133-49.031 13.035 0 24.699 11.375 24.699 32.039 0 15.551-3.5312 32.184-24.555 61.129-18.719 25.918-51.695 58.969-93.094 86.617z" fill="#fffff9" fill-rule="evenodd"/>
 </g>
</svg>
