<?xml version="1.0" encoding="UTF-8"?>
<svg width="2380.8pt" height="290.02pt" version="1.1" viewBox="0 0 2380.8 290.02" xmlns="http://www.w3.org/2000/svg" xmlns:cc="http://creativecommons.org/ns#" xmlns:dc="http://purl.org/dc/elements/1.1/" xmlns:rdf="http://www.w3.org/1999/02/22-rdf-syntax-ns#">
 <metadata>
  <rdf:RDF>
   <cc:Work rdf:about="">
    <dc:format>image/svg+xml</dc:format>
    <dc:type rdf:resource="http://purl.org/dc/dcmitype/StillImage"/>
    <dc:title/>
   </cc:Work>
  </rdf:RDF>
 </metadata>
 <g transform="translate(-99 -1148.7)">
  <path d="m438.98 1184.6c0.28907-1.6563 0.35938-3.3828 0.35938-5.0391 0-6.625-1.4414-11.809-4.1758-16.199-2.5938-3.8867-5.6172-5.9766-8.9297-5.9766-4.4609 0-8.5664 6.9844-12.023 21.024-2.8789 11.52-4.4609 21.457-4.4609 30.312-0.64844 33.406-1.0117 53.93-1.2266 61.488-10.438 0.6484-22.68 3.3125-36.934 7.8476l-36.434 12.098c-0.14454-3.8164 0.0703-9.5782 0.5039-16.992 0.4336-7.9219 0.57422-13.394 0.57422-16.203 0-8.711 0.28906-21.598 0.64844-38.805 0.21875-17.066 0.5039-29.953 0.5039-38.594 0-6.2656-1.293-11.52-3.7422-15.77-2.4492-4.1016-5.543-6.4063-9.2148-6.4063-3.6719 0-6.7695 2.0899-9.2188 6.336-2.5195 4.25-3.7422 9.2148-3.7422 15.336 0 14.039-0.14454 35.426-0.50391 63.648-0.35938 28.441-0.57813 49.535-0.57813 63.719 0 11.016-0.57421 27.793-1.6562 49.754-1.0781 22.102-1.7266 38.809-1.7266 49.894 0 6.1211 1.2227 11.234 3.7461 15.266 2.4453 4.2461 5.543 6.3359 9.2148 6.3359 3.6719 0 6.7656-2.0898 9.2148-5.9766 2.4492-3.9609 3.7461-8.8554 3.7461-14.617 0-9.504 0.21484-21.457 0.86328-36.145 0.86328-16.773 1.2226-28.797 1.3672-35.855 12.168-4.0313 24.266-8.2071 36.434-12.024 14.613-4.75 26.926-7.4883 36.934-8.2812-0.14453 4.8984-0.28906 10.586-0.28906 16.992 0 8.2812 0.28906 20.738 0.72266 37.082 0.42968 16.414 0.57422 28.726 0.57422 37.152 0 5.9766 1.2969 11.086 4.0312 15.336 2.7383 4.2461 5.9766 6.3359 9.7226 6.3359 3.6719 0 6.7656-2.1602 9.2148-6.4102 2.4492-4.3906 3.6719-9.6484 3.6719-15.84 0-8.1367-0.35937-20.445-1.0078-37.008-0.64844-16.488-1.0078-28.801-1.0078-37.078 0-10.656 0.28906-26.785 0.86328-47.883 0.71875-21.168 1.0078-37.078 1.0078-47.879 0-3.2382 0.14453-8.1367 0.57812-14.688 0.28516-6.625 0.42969-11.52 0.42969-14.688 0-6.121 0.72266-13.176 1.9453-21.602zm112.18 18.863c3.8867 0 7.1289-2.5196 9.7188-7.8477 2.2344-4.6055 3.3867-9.5742 3.3867-15.477 0-10.371-2.9531-17.641-8.7148-21.602-9.6484-6.4805-22.32-9.793-38.305-9.793-5.9023 0-12.168 0.8633-18.719 2.4492-6.6953 1.7266-13.605 4.2461-20.953 7.3438-2.375-2.8086-4.9648-4.1055-7.7031-4.1055-8.8555 0-13.32 8.6406-13.32 25.707 0 3.8125 0.28906 9.7891 0.9375 17.352 0.64844 7.8477 1.0078 13.68 1.0078 17.637 0 15.051-0.57422 37.586-1.8711 67.824-1.2266 30.312-1.8711 53.066-1.8711 68.113 0 36.434 3.3828 60.121 10.367 71.062 6.2617 9.8672 19.801 14.832 40.32 14.832 20.016 0 33.117-1.0079 39.453-3.168 7.418-2.6641 11.16-10.078 11.16-22.606 0-7.6328-1.582-13.394-4.4609-17.641-2.5938-3.6719-5.7617-5.543-9.4336-5.543-1.2227 0-3.0977 0.3594-5.543 1.0078-2.5195 0.6485-4.3945 1.0782-5.6172 1.0782-3.8867 0-9.8633 0.074-17.711 0.4336-7.9219 0.289-13.898 0.5039-17.785 0.5039-7.3438 0-11.305-0.6485-11.953-2.1602-1.4375-3.0234-2.2305-15.551-2.2305-37.801 0-8.7109 0.21485-20.23 0.71875-34.633 18.145-2.5195 31.609-4.6797 40.68-6.5508 10.008-1.5117 17.57-2.7343 22.68-3.457 8.0664-1.8711 12.027-9.3594 12.027-22.75 0-6.9844-1.3711-12.816-3.9609-16.922-2.7383-4.2461-5.9766-6.3359-9.6484-6.3359-3.2422 0-10.945 1.0078-22.969 3.3125-21.168 3.6719-33.625 5.6172-37.152 6.1914 0.57813-29.664 0.86328-51.766 0.86328-66.816 6.1953-2.6641 11.953-4.75 17.426-6.0469 5.3984-1.4414 10.512-2.0859 15.262-2.0859 9.6484 0 19.656 2.5195 29.883 7.4844 1.4375 0.6484 2.8086 1.0078 4.0312 1.0078zm62.137 6.1211c9.4297 1.5859 18.504 8.0664 27 19.008 9.0703 11.664 13.535 23.906 13.535 36.648 0 2.5195-1.3672 5.9766-3.9609 11.016-2.8086 4.8985-5.6875 8.7149-8.9258 11.664-7.5625 6.8398-19.082 10.227-34.562 10.227-1.2226 0-2.5195 0-4.1016-0.1446v-89.855c6.9102 0.8632 10.582 1.2226 11.016 1.4375zm60.91 212.62c3.6719 0 6.9141-2.3046 9.5039-6.8398 2.7383-4.4648 3.9609-9.9375 3.9609-16.273 0-5.543-1.0781-10.438-3.2383-14.977-8.4961-17.422-21.168-34.344-37.945-51.117 11.305-7.707 19.871-17.426 25.559-28.73 5.6172-11.375 8.4258-24.336 8.4258-39.023 0-36-13.465-66.023-40.535-90.215-6.1953-5.543-13.754-9.5039-22.539-11.305-0.42969-0.2149-8.2774-1.2227-23.688-3.3125-5.6875-0.7188-10.152 2.7383-13.391 10.367-2.4492 5.9062-3.7461 12.746-3.7461 19.945l-0.21485 136.51c0 8.4961 0 21.242-0.14453 37.871-0.0703 16.992-0.21484 29.664-0.21484 38.16 0 6.4102 1.2227 11.738 3.8164 16.199 2.5898 4.4648 5.6875 6.6992 9.5039 6.6992 3.8164 0 6.9102-2.2344 9.5039-6.6992 2.5898-4.461 3.8164-9.7891 3.8164-16.199 0-3.5976-0.35937-21.887-1.082-54.719 23.043 12.312 44.066 34.703 63.289 66.672 2.8789 4.6797 5.9766 6.9843 9.3594 6.9843zm122.91-218.74c3.8867 0 7.125-2.5196 9.7188-7.8477 2.3047-4.6055 3.457-9.5742 3.457-15.477 0-10.371-3.0234-17.641-8.7852-21.602-9.5742-6.4805-22.32-9.793-38.305-9.793-5.832 0-12.168 0.8633-18.648 2.4492-6.6953 1.7266-13.68 4.2461-21.023 7.3438-2.375-2.8086-4.9688-4.1055-7.7031-4.1055-8.7852 0-13.25 8.6406-13.25 25.707 0 3.8125 0.21875 9.7891 0.9375 17.352 0.64844 7.8477 0.9375 13.68 0.9375 17.637 0 15.051-0.57813 37.586-1.8008 67.824-1.2227 30.312-1.9453 53.066-1.9453 68.113 0 36.434 3.457 60.121 10.441 71.062 6.1914 9.8672 19.727 14.832 40.246 14.832 20.016 0 33.121-1.0079 39.457-3.168 7.418-2.6641 11.16-10.078 11.16-22.606 0-7.6328-1.5117-13.394-4.4648-17.641-2.5898-3.6719-5.7578-5.543-9.4297-5.543-1.2266 0-3.0234 0.3594-5.4727 1.0078-2.5195 0.6485-4.3945 1.0782-5.6172 1.0782-3.9609 0-9.8633 0.074-17.785 0.4336-7.8477 0.289-13.895 0.5039-17.781 0.5039-7.2734 0-11.234-0.6485-11.953-2.1602-1.4414-3.0234-2.1602-15.551-2.1602-37.801 0-8.7109 0.14453-20.23 0.64844-34.633 18.145-2.5195 31.609-4.6797 40.68-6.5508 10.008-1.5117 17.641-2.7343 22.68-3.457 8.0625-1.8711 12.098-9.3594 12.098-22.75 0-6.9844-1.3711-12.816-4.0352-16.922-2.6602-4.2461-5.9023-6.3359-9.5742-6.3359-3.2383 0-10.945 1.0078-22.969 3.3125-21.168 3.6719-33.695 5.6172-37.152 6.1914 0.57812-29.664 0.86719-51.766 0.86719-66.816 6.1914-2.6641 11.879-4.75 17.352-6.0469 5.4688-1.4414 10.512-2.0859 15.262-2.0859 9.7226 0 19.656 2.5195 29.953 7.4844 1.3672 0.6484 2.7344 1.0078 3.9609 1.0078zm199.44 210.39c5.5469-4.3945 8.2812-11.449 8.2812-21.168 0-5.6875-1.1523-11.016-3.3125-15.48-2.4492-5.3281-5.6875-7.8476-9.6484-7.8476-1.3672 0-2.8086 0.3594-4.2461 1.2226-23.402 12.672-42.695 19.082-57.746 19.586 0.72265-18.578 1.2266-32.473 1.875-41.402 1.6523-50.613 2.5195-106.05 2.5195-166.1 0-6.4102-1.2266-11.883-3.7461-16.488-2.5898-4.5352-5.7578-6.6953-9.5742-6.6953-3.7461 0-6.9141 2.1601-9.3594 6.6953-2.5234 4.6055-3.8164 10.078-3.8164 16.488 0 60.047-0.86718 114.48-2.4492 163.44-1.2226 37.656-1.9453 55.441-1.9453 53.57 0 24.047 7.7774 36.285 23.258 36.285 9.2148 0 20.953-2.1601 35.281-6.4062 15.695-4.6094 27.141-9.7188 34.629-15.695zm91.297-203.98c14.543 0 24.625 4.3906 30.312 13.176 5.9765 9.2891 8.9296 25.703 8.9296 49.391 0 28.297-4.3203 53.715-12.816 75.816-9.3632 24.41-20.883 36.504-34.848 36.504-11.953 0-21.816-5.5429-29.738-16.918-8.207-11.664-12.238-26.93-12.238-45.648 0-27.793 4.75-52.922 14.184-75.816 10.008-24.266 22.102-36.504 36.215-36.504zm-8.4219 220.61c23.039 0 41.688-17.715 56.016-53.785 12.453-31.176 18.574-65.809 18.574-104.26 0-36.215-5.4726-63.215-16.488-81.43-11.016-18.074-27.504-27-49.68-27-22.969 0-42.047 17.781-57.168 53.277-13.465 31.684-20.23 66.457-20.23 104.91 0 32.688 7.0547 59.184 21.094 79.633 13.176 19.078 29.16 28.656 47.883 28.656zm163.73-220.61c14.543 0 24.625 4.3906 30.312 13.176 5.9766 9.2891 8.9258 25.703 8.9258 49.391 0 28.297-4.3203 53.715-12.816 75.816-9.3594 24.41-20.879 36.504-34.848 36.504-12.024 0-21.816-5.5429-29.734-16.918-8.207-11.664-12.312-26.93-12.312-45.648 0-27.793 4.8242-52.922 14.184-75.816 10.082-24.266 22.176-36.504 36.289-36.504zm-8.4257 220.61c23.043 0 41.617-17.715 55.945-53.785 12.457-31.176 18.574-65.809 18.574-104.26 0-36.215-5.4688-63.215-16.484-81.43-10.945-18.074-27.434-27-49.609-27-22.969 0-42.047 17.781-57.168 53.277-13.465 31.684-20.23 66.457-20.23 104.91 0 32.688 6.9805 59.184 21.094 79.633 13.176 19.078 29.16 28.656 47.879 28.656zm118.08-85.106c16.055 27.574 26.207 44.711 30.457 50.902 14.469 21.168 26.277 31.465 35.207 31.465 4.2461 0 7.414-3.0234 9.7929-8.9258 1.7266-4.539 2.5899-9.1445 2.5899-14.043 0-11.016-3.4571-18.285-10.152-22.246-3.7422-2.1602-7.1992-5.1836-10.438-9.4336-6.4101-8.6406-13.754-19.438-21.816-32.832-6.914-11.664-13.898-23.184-20.809-34.848 12.312-20.879 24.047-42.262 35.207-63.719 15.121-29.305 22.609-47.594 22.609-54.504 0-6.4101-1.2968-11.879-4.0312-16.418-2.7383-4.6055-5.832-6.7657-9.4336-6.7657-3.8164 0-7.1289 2.8086-10.152 8.4961-28.367 55.223-44.711 86.613-49.176 94.031 0-7.2735 0.5039-21.024 1.2226-41.039 0.5039-17.352 0.793-30.961 0.793-41.184 0-6.2656-1.2227-11.664-3.6719-16.273-2.5937-4.5352-5.6875-6.7695-9.5039-6.7695s-6.9101 2.2343-9.5039 6.7695c-2.5195 4.6094-3.8164 10.008-3.8164 16.273 0 25.055-0.4297 62.637-1.2969 112.82-0.8633 50.254-1.3672 87.84-1.3672 112.89 0 6.4062 1.1524 12.383 3.3125 17.926 2.8789 7.3476 6.7696 10.801 11.809 10.801 4.3203 0 7.5586-2.8086 9.6485-8.5664 1.6562-4.25 2.375-8.8554 2.375-13.609zm135.57 85.106c18.219 0 34.488-5.7617 48.602-16.992 18.574-15.051 27.863-37.008 27.863-66.098 0-23.902-4.3907-42.625-13.465-56.16-8.207-12.168-19.223-19.223-33.336-21.094-8.0625-0.8671-16.125-1.5156-24.191-2.3789-4.6797-1.2226-8.0625-3.0937-10.367-5.9023-2.375-2.7383-3.5274-6.3359-3.5274-10.586 0-8.2774 3.8164-15.91 11.445-22.75 7.2734-6.9844 15.121-10.367 23.258-10.586 3.0234 0 7.4882 1.2266 13.465 3.3867 5.9024 2.3008 10.367 3.3829 13.32 3.3829 3.9571 0 7.1992-2.5196 9.7891-7.4883 2.2344-4.6094 3.3867-9.7188 3.3867-15.625 0-8.2774-5.6875-15.551-16.992-21.887-9.0742-5.0391-16.777-7.4883-22.969-7.4883-15.695 0-29.953 9-42.984 27.289-12.961 18.43-19.512 38.59-19.727 60.621-0.1445 17.426 5.6133 30.891 17.277 40.32 8.6406 6.8399 18.578 10.441 29.449 10.945 14.184 0.4335 23.543 2.5195 28.223 5.6875 6.5547 4.6093 9.8672 13.969 9.8672 28.082 0 10.367-5.3281 19.941-15.84 28.582-10.227 8.4961-20.738 12.746-31.684 12.746-12.672 0-20.805-6.9844-24.477-20.809-2.664-10.367-6.8398-15.555-12.531-15.555-4.2461 0-7.5586 2.3789-9.9336 6.9141-2.375 4.6797-3.6016 10.727-3.6016 17.785 0 13.824 3.8907 26.062 11.664 36.719 9.1445 12.527 21.961 18.938 38.016 18.938zm215.21-143.79c3.8125 31.824 8.2773 62.062 13.246 90.938l5.3282 31.535c3.0976 12.383 7.7031 18.574 13.68 18.574 5.9765 0 10.726-5.1836 14.039-15.551 2.5196-7.9218 4.9688-18 7.3438-30.312l5.6914-31.105c6.5508-32.254 11.301-56.16 14.184-71.133 3.4531 38.016 6.7656 67.102 9.8633 87.336l5.2539 40.965c3.3125 17.57 8.4961 26.281 15.41 26.281 3.5274 0 6.625-2.0156 9.3594-6.1211 2.9531-4.4609 4.4648-10.008 4.4648-16.559 0-3.0234-2.8086-22.031-8.4257-56.879-5.6172-34.344-10.152-75.527-13.895-123.55-1.5859-20.59-2.9531-34.629-4.4648-42.262-3.2383-18.723-8.4258-28.008-15.336-28.008-7.1289 0-12.457 8.0625-15.84 24.191l-5.3281 38.879c-6.1914 40.106-12.961 76.824-20.16 110.3-5.4726-33.984-9.6484-65.594-12.383-95.113-2.9531-30.168-5.6875-50.328-8.2109-60.191-2.8047-10.297-6.9102-15.551-12.742-15.551-5.0391 0-9.1446 3.9609-12.527 11.879-3.3125 7.8477-6.4101 23.977-9.289 47.809-1.9453 17.426-3.8164 34.633-5.6172 52.129-0.4297 4.2461-4.0313 25.992-10.582 65.445-4.3204 26.281-6.4805 48.602-6.4805 66.746 0 6.336 1.0078 11.59 3.2383 16.055 2.5234 5.2578 5.9765 7.9219 10.297 7.9219 6.9844 0 11.809-7.9219 14.402-23.977 1.0781-12.602 2.2305-25.273 3.4531-38.016 5.1875-36.793 9.1445-64.367 12.027-82.656zm204.7-34.848c2.664 23.543 4.75 42.48 6.2617 57.168-1.7969 0.4296-6.2617 1.0078-13.391 1.871-5.9766 0.6485-10.441 1.5118-13.32 2.7344 8.711-26.062 15.48-46.726 20.449-61.773zm35.422 173.45c3.5274 0.2187 6.625-1.8711 9.3594-6.1172 2.8086-4.4648 4.1055-9.793 4.1055-16.488 0-4.8984-1.1524-12.168-3.3828-21.746-2.7383-11.664-4.3946-19.223-4.8242-22.32-5.6172-41.832-10.297-78.98-14.184-111.6-2.8086-24.191-4.7539-42.266-5.9766-54.215-2.375-15.051-6.9844-22.609-13.969-22.609-3.6718 0-13.391 21.383-29.23 64.223-11.016 29.738-21.024 58.465-30.024 86.258-5.9062 3.0235-8.9296 7.2695-9.2187 12.672-0.1445 3.0234 0.2891 6.2617 1.082 9.793-9.1445 33.336-13.824 52.848-13.824 58.605 0 6.5547 1.4375 11.738 4.1758 15.984 2.7344 4.3906 5.9023 6.3359 9.4297 6.3359 4.8984 0 8.7851-3.9609 11.594-12.094 7.1992-24.84 12.238-43.562 15.191-56.02 5.3282-1.5821 12.961-3.168 22.969-4.3164 10.582-1.2266 18.359-2.5235 22.969-3.7461 2.375 17.426 5.3282 32.688 8.6407 46.008 5.039 20.664 10.078 31.031 15.117 31.391zm146.66-207.79c3.7461 0 6.9844-2.1601 9.5781-6.7695 2.5196-4.4648 3.8164-9.793 3.8164-16.199 0-6.4102-1.2968-11.879-3.8164-16.344-2.5937-4.3906-5.832-6.5507-9.5781-6.5507-4.8242 0-12.094-0.6485-21.672-1.875-9.5742-1.1524-16.848-1.7266-21.672-1.7266-3.8868 0-9.5743 0.2148-17.277 0.3594-7.707 0.2148-13.465 0.4336-17.356 0.4336-3.957 0-8.9257-0.793-15.262-2.0157-7.8476-1.5859-12.891-2.5937-15.047-2.8086-4.25-0.5039-7.8515 1.8711-10.441 7.4141-2.3046 4.6094-3.457 9.793-3.457 15.555 0 11.664 3.5274 19.223 10.512 22.246 8.2813 3.457 19.512 5.3281 33.695 5.3281h4.8985c0.289 11.375 1.1523 31.824 2.664 61.488 1.3672 25.918 2.0157 46.297 2.0157 61.414 0 5.2578 0.1445 13.18 0.6484 23.617 0.3594 10.512 0.5742 18.359 0.5742 23.543 0 1.6563-0.2148 4.0352-0.5039 7.3438-0.289 3.0976-0.5039 5.6171-0.5039 7.1289 0 6.6953 1.5859 12.242 4.4649 16.703 2.7343 3.8164 5.7578 5.7617 9.289 5.7617 4.8242 0 8.5664-4.2461 11.086-12.961 1.9453-6.7657 3.0234-14.398 3.0234-22.75 0-3.961-0.2149-9.5039-0.7188-17.137-0.3593-7.6329-0.5742-13.176-0.5742-17.062 0-16.922-0.6484-39.891-2.0195-68.977-1.4375-33.051-2.2305-55.875-2.5899-68.762 5.3282-0.07 13.031 0.5781 23.113 1.7304 10.438 1.2227 18.141 1.8711 23.109 1.8711zm135.29 0c3.8164 0 7.0547-2.1601 9.6484-6.7695 2.5195-4.4648 3.7422-9.793 3.7422-16.199 0-6.4102-1.2227-11.879-3.7422-16.344-2.5937-4.3906-5.832-6.5507-9.6484-6.5507-4.8243 0-12.024-0.6485-21.602-1.875-9.6484-1.1524-16.848-1.7266-21.672-1.7266-3.8867 0-9.5742 0.2148-17.277 0.3594-7.707 0.2148-13.465 0.4336-17.426 0.4336-3.8867 0-8.9258-0.793-15.191-2.0157-7.8477-1.5859-12.887-2.5937-15.047-2.8086-4.3203-0.5039-7.8476 1.8711-10.441 7.4141-2.375 4.6094-3.457 9.793-3.457 15.555 0 11.664 3.5273 19.223 10.512 22.246 8.2813 3.457 19.512 5.3281 33.625 5.3281h4.9688c0.289 11.375 1.1523 31.824 2.664 61.488 1.2969 25.918 2.0156 46.297 2.0156 61.414 0 5.2578 0.1446 13.18 0.6485 23.617 0.3594 10.512 0.5742 18.359 0.5742 23.543 0 1.6563-0.2148 4.0352-0.5039 7.3438-0.2852 3.0976-0.5039 5.6171-0.5039 7.1289 0 6.6953 1.5117 12.242 4.4648 16.703 2.7383 3.8164 5.7617 5.7617 9.2149 5.7617 4.8984 0 8.5703-4.2461 11.16-12.961 1.9453-6.7657 3.0235-14.398 3.0235-22.75 0-3.961-0.2149-9.5039-0.7188-17.137-0.4297-7.6329-0.5742-13.176-0.5742-17.062 0-16.922-0.7227-39.891-2.0156-68.977-1.4414-33.051-2.3047-55.875-2.5938-68.762 5.3281-0.07 13.031 0.5781 23.039 1.7304 10.512 1.2227 18.219 1.8711 23.113 1.8711zm117.57-14.043c3.8906 0 7.1289-2.5196 9.7226-7.8477 2.3047-4.6055 3.4532-9.5742 3.4532-15.477 0-10.371-3.0235-17.641-8.7813-21.602-9.5781-6.4805-22.32-9.793-38.305-9.793-5.832 0-12.168 0.8633-18.648 2.4492-6.6953 1.7266-13.68 4.2461-21.023 7.3438-2.375-2.8086-4.9688-4.1055-7.7032-4.1055-8.7851 0-13.25 8.6406-13.25 25.707 0 3.8125 0.2188 9.7891 0.9375 17.352 0.6485 7.8477 0.9336 13.68 0.9336 17.637 0 15.051-0.5039 37.586-1.7969 67.824-1.2265 30.312-1.9453 53.066-1.9453 68.113 0 36.434 3.4571 60.121 10.441 71.062 6.1914 9.8672 19.727 14.832 40.32 14.832 19.941 0 33.047-1.0079 39.383-3.168 7.414-2.6641 11.16-10.078 11.16-22.606 0-7.6328-1.5117-13.394-4.4648-17.641-2.5938-3.6719-5.7617-5.543-9.4336-5.543-1.2227 0-3.0235 0.3594-5.4688 1.0078-2.5234 0.6485-4.3945 1.0782-5.6172 1.0782-3.9609 0-9.8632 0.074-17.785 0.4336-7.8477 0.289-13.894 0.5039-17.781 0.5039-7.2734 0-11.234-0.6485-11.953-2.1602-1.4414-3.0234-2.1601-15.551-2.1601-37.801 0-8.7109 0.1445-20.23 0.6484-34.633 18.215-2.5195 31.606-4.6797 40.68-6.5508 10.008-1.5117 17.641-2.7343 22.68-3.457 8.0625-1.8711 12.094-9.3594 12.094-22.75 0-6.9844-1.3672-12.816-4.0312-16.922-2.6641-4.2461-5.9024-6.3359-9.5742-6.3359-3.2422 0-10.945 1.0078-22.969 3.3125-21.168 3.6719-33.695 5.6172-37.152 6.1914 0.5781-29.664 0.8632-51.766 0.8632-66.816 6.1914-2.6641 11.953-4.75 17.352-6.0469 5.4727-1.4414 10.512-2.0859 15.266-2.0859 9.7188 0 19.656 2.5195 29.953 7.4844 1.3671 0.6484 2.7343 1.0078 3.957 1.0078zm62.211 6.1211c9.4297 1.5859 18.504 8.0664 27 19.008 9 11.664 13.461 23.906 13.461 36.648 0 2.5195-1.293 5.9766-3.9571 11.016-2.7383 4.8985-5.6875 8.7149-8.9297 11.664-7.4882 6.8398-19.008 10.227-34.488 10.227-1.2227 0-2.5899 0-4.1758-0.1446v-89.855c6.914 0.8632 10.656 1.2226 11.09 1.4375zm60.91 212.62c3.6719 0 6.8398-2.3046 9.5039-6.8398 2.664-4.4648 3.9609-9.9375 3.9609-16.273 0-5.543-1.082-10.438-3.3125-14.977-8.4219-17.422-21.098-34.344-37.945-51.117 11.379-7.707 19.875-17.426 25.562-28.73 5.6875-11.375 8.4961-24.336 8.4961-39.023 0-36-13.465-66.023-40.609-90.215-6.1211-5.543-13.75-9.5039-22.535-11.305-0.4336-0.2149-8.2813-1.2227-23.688-3.3125-5.6875-0.7188-10.152 2.7383-13.395 10.367-2.4453 5.9062-3.7421 12.746-3.7421 19.945l-0.1446 136.51c0 8.4961-0.07 21.242-0.2148 37.871 0 16.992-0.1446 29.664-0.1446 38.16 0 6.4102 1.2227 11.738 3.7422 16.199 2.5938 4.4648 5.6914 6.6992 9.5782 6.6992 3.8164 0 6.9101-2.2344 9.5039-6.6992 2.5195-4.461 3.7422-9.7891 3.7422-16.199 0-3.5976-0.3594-21.887-1.0079-54.719 22.969 12.312 43.992 34.703 63.219 66.672 2.8789 4.6797 5.9726 6.9843 9.4297 6.9843zm-2177.2-218.95c2.0859-9.7929 3.2383-15.91 3.2383-18.215 0-6.625-1.2226-12.168-3.7422-16.418-2.5938-4.2461-5.6875-6.2617-9.6484-6.2617-4.9688 0-9.0703 3.8164-12.168 11.809-2.7344 7.2695-5.1133 17.277-6.9102 29.949-2.5234 17.641-4.25 27.867-4.8984 31.176-11.375 52.633-20.305 93.027-27.07 120.89-6.6953-51.191-10.656-86.402-11.953-105.84-1.2227-18.145-2.0898-29.449-2.4492-34.059-1.3672-14.973-2.7344-25.559-4.1016-31.246-2.8828-12.098-7.418-18.215-13.609-18.215-6.5508 0-13.031 12.453-19.367 36.934-2.6641 10.367-6.0469 27.578-10.367 51.984-5.2578 29.879-10.441 55.801-15.48 77.832-7.7773-60.91-14.832-107.35-21.023-139.03-1.9453-10.367-3.8164-17.641-5.4023-21.602-2.8789-7.1992-6.625-10.797-11.445-10.797-3.6758 0-6.8438 1.8711-9.4336 5.4688-2.9531 3.8164-4.3203 9.2891-4.3203 15.984 0 2.9531 0.28906 5.6172 0.79297 8.5703 9.793 49.32 16.848 87.48 21.023 114.12 4.75 34.992 8.207 61.273 10.297 78.914l2.8789 19.727c0.0703 7.9219 1.8008 14.328 5.1836 18.793 2.9531 4.2461 6.8398 6.3359 11.449 6.3359 3.6719 0 7.0547-1.9453 10.078-5.6875 3.5274-4.25 5.2578-10.008 5.2578-16.992 0-2.8086-0.35938-5.3281-0.86328-7.7773 2.1602-15.48 6.7656-36.719 13.965-63.863 4.7539-18.07 9.2188-38.375 13.25-61.055 4.9688 48.383 8.8555 84.598 11.59 108.79 0.72266 8.2812 2.5938 18.723 5.5469 31.754 0.21484 6.4804 2.0859 11.879 5.4726 15.91 2.9492 3.6016 6.1914 5.3282 9.7891 5.3282 6.0508 0 10.656-4.75 13.609-14.039 2.2305-7.0547 4.75-16.414 7.2734-28.297 3.5273-15.91 9.2148-39.957 17.277-72.215 7.9219-31.75 13.609-55.945 17.207-72.504 2.3789-12.816 4.1797-22.391 5.2578-29.086 1.3672-6.6992 2.7344-12.531 3.8164-17.066z" fill="#e65c00" fill-rule="evenodd"/>
 </g>
</svg>
